<svg xmlns="http://www.w3.org/2000/svg" width="24" height="24" viewBox="0 0 24 24" fill="none" stroke="#6E6E6E" stroke-width="2" stroke-linecap="round" stroke-linejoin="round">
  <path d="M12 15.5a3.5 3.5 0 1 0 0-7 3.5 3.5 0 0 0 0 7z"/>
  <path d="M19.4 15a1.8 1.8 0 0 0 .36 1.98l.05.05a2.2 2.2 0 0 1 0 3.11 2.2 2.2 0 0 1-3.11 0l-.05-.05a1.8 1.8 0 0 0-1.98-.36 1.8 1.8 0 0 0-1.06 1.64V21a2.2 2.2 0 0 1-4.4 0v-.07a1.8 1.8 0 0 0-1.06-1.64 1.8 1.8 0 0 0-1.98.36l-.05.05a2.2 2.2 0 0 1-3.11 0 2.2 2.2 0 0 1 0-3.11l.05-.05A1.8 1.8 0 0 0 4.6 15a1.8 1.8 0 0 0-1.64-1.06H2.9a2.2 2.2 0 0 1 0-4.4h.07A1.8 1.8 0 0 0 4.7 8.48a1.8 1.8 0 0 0-.36-1.98l-.05-.05a2.2 2.2 0 0 1 0-3.11 2.2 2.2 0 0 1 3.11 0l.05.05c.52.52 1.29.67 1.98.36A1.8 1.8 0 0 0 10.5 2.1V2a2.2 2.2 0 0 1 4.4 0v.07c0 .72.42 1.37 1.06 1.64.69.31 1.46.16 1.98-.36l.05-.05a2.2 2.2 0 0 1 3.11 0 2.2 2.2 0 0 1 0 3.11l-.05.05c-.52.52-.67 1.29-.36 1.98.27.64.92 1.06 1.64 1.06H21a2.2 2.2 0 0 1 0 4.4h-.07A1.8 1.8 0 0 0 19.4 15z"/>
</svg>
